<svg width="19" height="20" viewBox="0 0 19 20" fill="none" xmlns="http://www.w3.org/2000/svg">
<path fill-rule="evenodd" clip-rule="evenodd" d="M6.33333 2.29333C6.77055 2.29333 7.125 2.64778 7.125 3.085V6.25167H11.875V3.085C11.875 2.64778 12.2294 2.29333 12.6667 2.29333C13.1039 2.29333 13.4583 2.64778 13.4583 3.085V6.25167H16.625C17.0622 6.25167 17.4167 6.60611 17.4167 7.04334C17.4167 7.48056 17.0622 7.835 16.625 7.835H13.4583V12.585H16.625C17.0622 12.585 17.4167 12.9394 17.4167 13.3767C17.4167 13.8139 17.0622 14.1683 16.625 14.1683H13.4583V17.335C13.4583 17.7722 13.1039 18.1267 12.6667 18.1267C12.2294 18.1267 11.875 17.7722 11.875 17.335V14.1683H7.125V17.335C7.125 17.7722 6.77055 18.1267 6.33333 18.1267C5.8961 18.1267 5.54166 17.7722 5.54166 17.335V14.1683H2.37499C1.93777 14.1683 1.58333 13.8139 1.58333 13.3767C1.58333 12.9394 1.93777 12.585 2.37499 12.585H5.54166V7.835H2.37499C1.93777 7.835 1.58333 7.48056 1.58333 7.04334C1.58333 6.60611 1.93777 6.25167 2.37499 6.25167H5.54166V3.085C5.54166 2.64778 5.8961 2.29333 6.33333 2.29333ZM7.125 7.835V12.585H11.875V7.835H7.125Z" fill="black" fill-opacity="0.35"/>
</svg>
