<svg width="146" height="43" viewBox="0 0 146 43" fill="none" xmlns="http://www.w3.org/2000/svg">
<path d="M144.526 37.6508C144.526 39.8882 142.676 41.7006 140.387 41.7006H4.95133C2.66401 41.7006 0.807373 39.8882 0.807373 37.6508V5.3549C0.807373 3.11852 2.66401 1.2998 4.95133 1.2998H140.386C142.676 1.2998 144.525 3.11852 144.525 5.3549L144.526 37.6508Z" fill="black"/>
<path d="M139.951 1.34902C142.443 1.34902 144.471 3.32626 144.471 5.75615V37.245C144.471 39.6749 142.443 41.6521 139.951 41.6521H5.38271C2.89052 41.6521 0.862579 39.6749 0.862579 37.245V5.75615C0.862579 3.32626 2.89052 1.34902 5.38271 1.34902H139.951ZM139.951 0.50801H5.38271C2.42357 0.50801 0 2.87099 0 5.75615V37.245C0 40.1302 2.42357 42.4932 5.38271 42.4932H139.951C142.91 42.4932 145.333 40.1302 145.333 37.245V5.75615C145.333 2.87099 142.91 0.50801 139.951 0.50801Z" fill="#A6A6A6"/>
<path d="M32.434 21.2735C32.4028 17.8906 35.275 16.2447 35.4064 16.1681C33.7797 13.8558 31.2585 13.5399 30.3725 13.5147C28.2549 13.2974 26.2009 14.7501 25.1222 14.7501C24.0219 14.7501 22.3608 13.5357 20.5705 13.5713C18.2667 13.606 16.1115 14.9065 14.9295 16.926C12.49 21.0436 14.3094 27.0948 16.6465 30.4231C17.8157 32.0532 19.1818 33.8733 20.9699 33.8092C22.7193 33.7389 23.3728 32.7218 25.4839 32.7218C27.5756 32.7218 28.1892 33.8092 30.0129 33.7683C31.8904 33.7389 33.0724 32.1309 34.2006 30.4861C35.5517 28.6178 36.0943 26.7778 36.1158 26.6833C36.0717 26.6686 32.4696 25.3282 32.434 21.2735Z" fill="white"/>
<path d="M28.9891 11.3251C29.93 10.1779 30.5738 8.61709 30.3951 7.0332C29.0332 7.09198 27.3302 7.95163 26.3494 9.07368C25.4817 10.0624 24.7066 11.6831 24.9069 13.2071C26.4366 13.3184 28.0073 12.4545 28.9891 11.3251Z" fill="white"/>
<path d="M57.751 33.5759H55.3061L53.9669 29.4729H49.3119L48.0362 33.5759H45.656L50.2679 19.6074H53.1164L57.751 33.5759ZM53.5632 27.7515L52.3521 24.104C52.224 23.7314 51.9839 22.8539 51.6297 21.4726H51.5867C51.4456 22.0667 51.2185 22.9442 50.9063 24.104L49.7167 27.7515H53.5632Z" fill="white"/>
<path d="M69.6112 28.4159C69.6112 30.1289 69.1364 31.4829 68.1869 32.4769C67.3364 33.3618 66.2803 33.8037 65.0197 33.8037C63.659 33.8037 62.6815 33.3271 62.0861 32.3741H62.0431V37.6799H59.7479V26.8194C59.7479 25.7425 59.7188 24.6373 59.6628 23.5037H61.6814L61.8095 25.1001H61.8525C62.618 23.8973 63.7795 23.2969 65.3384 23.2969C66.557 23.2969 67.5744 23.7661 68.3882 24.7055C69.2042 25.6459 69.6112 26.8824 69.6112 28.4159ZM67.2729 28.4978C67.2729 27.5174 67.0468 26.7092 66.5925 26.0731C66.0963 25.4098 65.4299 25.0781 64.5945 25.0781C64.0282 25.0781 63.5136 25.2628 63.0539 25.6271C62.5932 25.9944 62.2918 26.4741 62.1507 27.0682C62.0797 27.3453 62.0442 27.572 62.0442 27.7505V29.4299C62.0442 30.1625 62.2745 30.7807 62.7353 31.2856C63.1961 31.7905 63.7946 32.0424 64.531 32.0424C65.3954 32.0424 66.0683 31.717 66.5495 31.0683C67.0318 30.4186 67.2729 29.5621 67.2729 28.4978Z" fill="white"/>
<path d="M81.4932 28.4159C81.4932 30.1289 81.0184 31.4829 80.0678 32.4769C79.2184 33.3618 78.1623 33.8037 76.9017 33.8037C75.5409 33.8037 74.5634 33.3271 73.9692 32.3741H73.9261V37.6799H71.6309V26.8194C71.6309 25.7425 71.6019 24.6373 71.5459 23.5037H73.5644L73.6925 25.1001H73.7356C74.4999 23.8973 75.6615 23.2969 77.2214 23.2969C78.439 23.2969 79.4563 23.7661 80.2724 24.7055C81.0851 25.6459 81.4932 26.8824 81.4932 28.4159ZM79.1549 28.4978C79.1549 27.5174 78.9277 26.7092 78.4734 26.0731C77.9772 25.4098 77.3129 25.0781 76.4765 25.0781C75.9091 25.0781 75.3956 25.2628 74.9349 25.6271C74.4741 25.9944 74.1737 26.4741 74.0327 27.0682C73.9627 27.3453 73.9261 27.572 73.9261 27.7505V29.4299C73.9261 30.1625 74.1565 30.7807 74.6151 31.2856C75.0759 31.7894 75.6744 32.0424 76.413 32.0424C77.2774 32.0424 77.9503 31.717 78.4315 31.0683C78.9138 30.4186 79.1549 29.5621 79.1549 28.4978Z" fill="white"/>
<path d="M94.7776 29.6583C94.7776 30.8464 94.3545 31.8132 93.5051 32.5594C92.5718 33.375 91.2724 33.7823 89.6026 33.7823C88.061 33.7823 86.8252 33.4926 85.8896 32.9121L86.4215 31.0469C87.4291 31.641 88.5347 31.9391 89.7394 31.9391C90.6038 31.9391 91.2767 31.7481 91.76 31.3681C92.2413 30.9881 92.4813 30.478 92.4813 29.842C92.4813 29.2752 92.2832 28.7976 91.886 28.4103C91.4909 28.0229 90.831 27.6629 89.9095 27.3302C87.4011 26.4181 86.148 25.0819 86.148 23.3248C86.148 22.1765 86.5873 21.235 87.4668 20.5024C88.3431 19.7687 89.5122 19.4023 90.9742 19.4023C92.2778 19.4023 93.3609 19.6238 94.2253 20.0657L93.6515 21.89C92.8441 21.4617 91.9312 21.2476 90.9096 21.2476C90.1022 21.2476 89.4713 21.4418 89.0192 21.828C88.637 22.1734 88.4454 22.5943 88.4454 23.0928C88.4454 23.6449 88.6639 24.1015 89.1031 24.4605C89.4853 24.7922 90.1797 25.1512 91.1873 25.5385C92.42 26.0224 93.3253 26.5881 93.9077 27.2368C94.488 27.8833 94.7776 28.6926 94.7776 29.6583Z" fill="white"/>
<path d="M102.366 25.1822H99.8361V30.0725C99.8361 31.3163 100.282 31.9376 101.175 31.9376C101.586 31.9376 101.926 31.903 102.195 31.8337L102.258 33.5331C101.806 33.6979 101.211 33.7808 100.473 33.7808C99.567 33.7808 98.8586 33.511 98.3473 32.9726C97.8381 32.4331 97.5819 31.5283 97.5819 30.2572V25.1801H96.0747V23.5007H97.5819V21.6565L99.8361 20.9932V23.5007H102.366V25.1822Z" fill="white"/>
<path d="M113.781 28.4568C113.781 30.005 113.326 31.2761 112.42 32.2701C111.469 33.2935 110.207 33.8036 108.635 33.8036C107.119 33.8036 105.912 33.3134 105.012 32.3331C104.112 31.3527 103.662 30.1152 103.662 28.6237C103.662 27.0629 104.125 25.7844 105.054 24.7904C105.981 23.7954 107.232 23.2979 108.805 23.2979C110.321 23.2979 111.54 23.788 112.461 24.7694C113.341 25.7214 113.781 26.9506 113.781 28.4568ZM111.399 28.5292C111.399 27.6003 111.196 26.8036 110.783 26.1392C110.302 25.3352 109.614 24.9342 108.723 24.9342C107.8 24.9342 107.1 25.3362 106.618 26.1392C106.206 26.8047 106.003 27.6139 106.003 28.5712C106.003 29.5001 106.206 30.2968 106.618 30.9601C107.115 31.7642 107.808 32.1651 108.702 32.1651C109.579 32.1651 110.267 31.7558 110.763 30.9391C111.186 30.2621 111.399 29.4571 111.399 28.5292Z" fill="white"/>
<path d="M121.241 25.4717C121.014 25.4308 120.772 25.4098 120.518 25.4098C119.71 25.4098 119.086 25.7068 118.647 26.302C118.264 26.8268 118.073 27.4901 118.073 28.291V33.5759H115.779L115.8 26.6756C115.8 25.5147 115.771 24.4578 115.714 23.5047H117.713L117.797 25.4318H117.861C118.103 24.7695 118.485 24.2363 119.008 23.8364C119.52 23.4764 120.072 23.2969 120.667 23.2969C120.879 23.2969 121.071 23.3116 121.241 23.3378V25.4717Z" fill="white"/>
<path d="M131.506 28.0626C131.506 28.4636 131.479 28.8015 131.422 29.0776H124.536C124.563 30.0726 124.896 30.8336 125.535 31.3584C126.116 31.8276 126.866 32.0627 127.788 32.0627C128.807 32.0627 129.737 31.9042 130.574 31.5862L130.933 33.1397C129.956 33.5553 128.802 33.7621 127.47 33.7621C125.868 33.7621 124.611 33.3023 123.696 32.3839C122.783 31.4655 122.325 30.2322 122.325 28.685C122.325 27.1662 122.75 25.9014 123.602 24.8927C124.493 23.8158 125.698 23.2773 127.214 23.2773C128.703 23.2773 129.83 23.8158 130.595 24.8927C131.201 25.7482 131.506 26.8062 131.506 28.0626ZM129.317 27.4822C129.332 26.8188 129.183 26.2457 128.872 25.7618C128.474 25.1394 127.864 24.8287 127.043 24.8287C126.292 24.8287 125.682 25.132 125.216 25.7408C124.834 26.2247 124.606 26.8051 124.536 27.4811H129.317V27.4822Z" fill="white"/>
<path d="M52.8044 11.0143C52.8044 12.2497 52.4244 13.1797 51.6654 13.8042C50.9624 14.3805 49.9634 14.6691 48.6694 14.6691C48.0278 14.6691 47.4787 14.6418 47.019 14.5872V7.83709C47.6187 7.74262 48.2646 7.69434 48.9622 7.69434C50.1948 7.69434 51.1239 7.95569 51.7505 8.47841C52.4524 9.06935 52.8044 9.9143 52.8044 11.0143ZM51.6148 11.0448C51.6148 10.2439 51.3973 9.62985 50.9624 9.2016C50.5275 8.7744 49.8923 8.56028 49.0559 8.56028C48.7006 8.56028 48.3981 8.58337 48.1473 8.63165V13.7633C48.2861 13.7843 48.5402 13.7937 48.9095 13.7937C49.7728 13.7937 50.4392 13.5597 50.9086 13.0915C51.378 12.6234 51.6148 11.9411 51.6148 11.0448Z" fill="white"/>
<path d="M59.1118 12.0934C59.1118 12.8544 58.8889 13.4778 58.4432 13.967C57.976 14.4697 57.357 14.7206 56.584 14.7206C55.8391 14.7206 55.2459 14.4802 54.8034 13.9974C54.3621 13.5156 54.1414 12.9079 54.1414 12.1752C54.1414 11.409 54.3685 10.7803 54.825 10.2922C55.2814 9.80413 55.895 9.55957 56.668 9.55957C57.413 9.55957 58.0115 9.79994 58.4648 10.2817C58.8954 10.7498 59.1118 11.3544 59.1118 12.0934ZM57.9416 12.1291C57.9416 11.6725 57.8404 11.281 57.639 10.9545C57.4022 10.5599 57.0653 10.3625 56.6271 10.3625C56.1739 10.3625 55.8294 10.5599 55.5925 10.9545C55.3901 11.281 55.29 11.6788 55.29 12.149C55.29 12.6056 55.3912 12.9971 55.5925 13.3235C55.8369 13.7182 56.1771 13.9155 56.6163 13.9155C57.0469 13.9155 57.385 13.7151 57.6283 13.313C57.8371 12.9803 57.9416 12.5856 57.9416 12.1291Z" fill="white"/>
<path d="M67.5692 9.66016L65.9813 14.6081H64.9478L64.2901 12.4595C64.1232 11.9232 63.9876 11.3899 63.8821 10.8609H63.8616C63.7636 11.4046 63.628 11.9368 63.4536 12.4595L62.7549 14.6081H61.7096L60.2164 9.66016H61.3759L61.9497 12.0124C62.0885 12.5687 62.2027 13.0987 62.2942 13.6005H62.3146C62.3986 13.1869 62.5375 12.66 62.7334 12.0229L63.4536 9.66121H64.373L65.063 11.9725C65.2299 12.5361 65.3655 13.0788 65.47 13.6015H65.5012C65.5776 13.0924 65.6928 12.5498 65.8457 11.9725L66.4614 9.66121H67.5692V9.66016Z" fill="white"/>
<path d="M73.418 14.6075H72.2898V11.7735C72.2898 10.9002 71.9496 10.4636 71.2671 10.4636C70.9323 10.4636 70.662 10.5833 70.4521 10.8236C70.2443 11.064 70.1388 11.3474 70.1388 11.6717V14.6065H69.0106V11.0734C69.0106 10.6389 68.9966 10.1676 68.9697 9.65748H69.9612L70.014 10.4311H70.0452C70.1765 10.1907 70.3725 9.99231 70.6298 9.83382C70.9355 9.64908 71.2778 9.55566 71.6525 9.55566C72.1261 9.55566 72.5202 9.70471 72.8334 10.0039C73.2231 10.3702 73.418 10.917 73.418 11.6434V14.6075Z" fill="white"/>
<path d="M76.5292 14.6079H75.4021V7.38965H76.5292V14.6079Z" fill="white"/>
<path d="M83.1716 12.0934C83.1716 12.8544 82.9487 13.4778 82.503 13.967C82.0358 14.4697 81.4157 14.7206 80.6439 14.7206C79.8978 14.7206 79.3046 14.4802 78.8632 13.9974C78.4219 13.5156 78.2012 12.9079 78.2012 12.1752C78.2012 11.409 78.4283 10.7803 78.8848 10.2922C79.3412 9.80413 79.9549 9.55957 80.7267 9.55957C81.4728 9.55957 82.0703 9.79994 82.5246 10.2817C82.9552 10.7498 83.1716 11.3544 83.1716 12.0934ZM82.0003 12.1291C82.0003 11.6725 81.8991 11.281 81.6978 10.9545C81.462 10.5599 81.124 10.3625 80.6869 10.3625C80.2326 10.3625 79.8881 10.5599 79.6524 10.9545C79.45 11.281 79.3498 11.6788 79.3498 12.149C79.3498 12.6056 79.451 12.9971 79.6524 13.3235C79.8967 13.7182 80.2369 13.9155 80.6761 13.9155C81.1068 13.9155 81.4437 13.7151 81.687 13.313C81.8969 12.9803 82.0003 12.5856 82.0003 12.1291Z" fill="white"/>
<path d="M88.6315 14.6083H87.6185L87.5345 14.0383H87.5033C87.1567 14.4928 86.6626 14.7206 86.0209 14.7206C85.5419 14.7206 85.1543 14.5705 84.8626 14.2724C84.5978 14.0016 84.4653 13.6647 84.4653 13.2648C84.4653 12.6602 84.7237 12.1994 85.2437 11.8803C85.7626 11.5612 86.4925 11.4048 87.4323 11.4122V11.3198C87.4323 10.668 87.0813 10.3426 86.3783 10.3426C85.8778 10.3426 85.4364 10.4654 85.0553 10.7089L84.826 9.98677C85.2975 9.70232 85.8799 9.55957 86.5667 9.55957C87.893 9.55957 88.5583 10.2418 88.5583 11.6063V13.4285C88.5583 13.9229 88.5831 14.3165 88.6315 14.6083ZM87.4603 12.9079V12.1448C86.2158 12.1238 85.5936 12.4565 85.5936 13.142C85.5936 13.4002 85.6646 13.5933 85.8099 13.7224C85.9553 13.8515 86.1404 13.9155 86.3611 13.9155C86.6087 13.9155 86.8402 13.8389 87.0512 13.6867C87.2633 13.5335 87.3935 13.3393 87.442 13.101C87.4538 13.0475 87.4603 12.9824 87.4603 12.9079Z" fill="white"/>
<path d="M95.0427 14.6079H94.0415L93.9887 13.8134H93.9575C93.6378 14.418 93.0931 14.7203 92.3276 14.7203C91.7162 14.7203 91.207 14.4862 90.8033 14.0181C90.3996 13.5499 90.1982 12.9422 90.1982 12.1959C90.1982 11.395 90.4168 10.7464 90.856 10.2509C91.2812 9.7891 91.8023 9.55818 92.4224 9.55818C93.1038 9.55818 93.5807 9.78175 93.852 10.2299H93.8735V7.38965H95.0028V13.2749C95.0028 13.7567 95.0158 14.2007 95.0427 14.6079ZM93.8735 12.5213V11.6963C93.8735 11.5535 93.8628 11.4381 93.8423 11.3499C93.7788 11.0854 93.6421 10.8629 93.4343 10.6834C93.2244 10.5039 92.9714 10.4136 92.6797 10.4136C92.2587 10.4136 91.9293 10.5763 91.6871 10.9028C91.447 11.2292 91.3254 11.6459 91.3254 12.155C91.3254 12.6441 91.4406 13.0408 91.672 13.3463C91.9164 13.6717 92.2458 13.8344 92.6581 13.8344C93.0285 13.8344 93.3245 13.699 93.5495 13.4271C93.767 13.1763 93.8735 12.874 93.8735 12.5213Z" fill="white"/>
<path d="M104.692 12.0934C104.692 12.8544 104.469 13.4778 104.023 13.967C103.556 14.4697 102.938 14.7206 102.164 14.7206C101.42 14.7206 100.827 14.4802 100.383 13.9974C99.9419 13.5156 99.7212 12.9079 99.7212 12.1752C99.7212 11.409 99.9483 10.7803 100.405 10.2922C100.861 9.80413 101.475 9.55957 102.249 9.55957C102.993 9.55957 103.592 9.79994 104.045 10.2817C104.475 10.7498 104.692 11.3544 104.692 12.0934ZM103.522 12.1291C103.522 11.6725 103.421 11.281 103.22 10.9545C102.982 10.5599 102.646 10.3625 102.207 10.3625C101.755 10.3625 101.41 10.5599 101.172 10.9545C100.97 11.281 100.87 11.6788 100.87 12.149C100.87 12.6056 100.971 12.9971 101.172 13.3235C101.417 13.7182 101.757 13.9155 102.196 13.9155C102.627 13.9155 102.966 13.7151 103.209 13.313C103.417 12.9803 103.522 12.5856 103.522 12.1291Z" fill="white"/>
<path d="M110.758 14.6075H109.631V11.7735C109.631 10.9002 109.29 10.4636 108.607 10.4636C108.272 10.4636 108.002 10.5833 107.793 10.8236C107.584 11.064 107.48 11.3474 107.48 11.6717V14.6065H106.35V11.0734C106.35 10.6389 106.337 10.1676 106.311 9.65748H107.301L107.354 10.4311H107.385C107.517 10.1907 107.713 9.99231 107.969 9.83382C108.276 9.64908 108.618 9.55566 108.993 9.55566C109.466 9.55566 109.86 9.70471 110.173 10.0039C110.564 10.3702 110.758 10.917 110.758 11.6434V14.6075Z" fill="white"/>
<path d="M118.351 10.484H117.108V12.8876C117.108 13.4985 117.329 13.8039 117.766 13.8039C117.969 13.8039 118.137 13.7871 118.269 13.7525L118.298 14.587C118.075 14.6688 117.782 14.7098 117.422 14.7098C116.976 14.7098 116.629 14.5775 116.379 14.313C116.127 14.0485 116.002 13.6035 116.002 12.9789V10.484H115.26V9.66H116.002V8.75312L117.107 8.42773V9.65895H118.35V10.484H118.351Z" fill="white"/>
<path d="M124.323 14.6079H123.194V11.7949C123.194 10.908 122.854 10.464 122.172 10.464C121.649 10.464 121.292 10.7212 121.096 11.2355C121.063 11.3436 121.043 11.4759 121.043 11.6312V14.6069H119.916V7.38965H121.043V10.3716H121.065C121.42 9.82899 121.929 9.55818 122.589 9.55818C123.056 9.55818 123.443 9.70723 123.75 10.0064C124.132 10.379 124.323 10.9332 124.323 11.6658V14.6079Z" fill="white"/>
<path d="M130.484 11.8999C130.484 12.0973 130.469 12.2631 130.442 12.3985H127.059C127.074 12.8876 127.235 13.2602 127.549 13.5185C127.835 13.7494 128.204 13.8648 128.656 13.8648C129.157 13.8648 129.614 13.7872 130.025 13.6308L130.201 14.3949C129.72 14.5985 129.154 14.7003 128.498 14.7003C127.712 14.7003 127.093 14.4747 126.645 14.0233C126.196 13.572 125.973 12.9663 125.973 12.2064C125.973 11.4601 126.18 10.8387 126.599 10.3433C127.036 9.81431 127.627 9.5498 128.373 9.5498C129.103 9.5498 129.658 9.81431 130.032 10.3433C130.335 10.7632 130.484 11.2827 130.484 11.8999ZM129.408 11.6155C129.417 11.289 129.342 11.0077 129.189 10.7705C128.993 10.4651 128.695 10.3118 128.292 10.3118C127.923 10.3118 127.623 10.4609 127.394 10.76C127.206 10.9983 127.095 11.2827 127.059 11.6155H129.408Z" fill="white"/>
</svg>
