<svg width="146" height="43" viewBox="0 0 146 43" fill="none" xmlns="http://www.w3.org/2000/svg">
<path d="M140.091 42.4932H5.70857C2.75349 42.4932 0.333252 40.1302 0.333252 37.245V5.75616C0.333252 2.87099 2.75349 0.508014 5.70857 0.508014H140.091C143.046 0.508014 145.467 2.87099 145.467 5.75616V37.245C145.467 40.1302 143.046 42.4932 140.091 42.4932Z" fill="black"/>
<path d="M140.091 1.34903C142.58 1.34903 144.605 3.32627 144.605 5.75616V37.245C144.605 39.6749 142.58 41.6521 140.091 41.6521H5.70857C3.2198 41.6521 1.19465 39.6749 1.19465 37.245V5.75616C1.19465 3.32627 3.2198 1.34903 5.70857 1.34903H140.091ZM140.091 0.508014H5.70857C2.75349 0.508014 0.333252 2.87099 0.333252 5.75616V37.245C0.333252 40.1302 2.75349 42.4932 5.70857 42.4932H140.091C143.046 42.4932 145.467 40.1302 145.467 37.245V5.75616C145.467 2.87099 143.046 0.508014 140.091 0.508014Z" fill="#A6A6A6"/>
<path d="M51.31 11.2603C51.31 12.1367 51.0413 12.8387 50.5118 13.3622C49.9031 13.9828 49.1102 14.295 48.1386 14.295C47.21 14.295 46.4172 13.9775 45.7668 13.3517C45.115 12.7167 44.7898 11.9373 44.7898 11.0045C44.7898 10.0716 45.115 9.29225 45.7668 8.66247C46.4172 8.03138 47.21 7.71387 48.1386 7.71387C48.6009 7.71387 49.0417 7.80702 49.4623 7.98021C49.8816 8.15471 50.2229 8.39088 50.4702 8.68215L49.9084 9.23583C49.4771 8.73857 48.8898 8.49322 48.1386 8.49322C47.4613 8.49322 46.8741 8.72413 46.3755 9.18991C45.8823 9.65699 45.6351 10.2618 45.6351 11.0045C45.6351 11.7471 45.8823 12.3572 46.3755 12.8242C46.8741 13.2848 47.4613 13.5209 48.1386 13.5209C48.8576 13.5209 49.4623 13.2848 49.9393 12.819C50.2538 12.5107 50.4325 12.0856 50.4796 11.5424H48.1386V10.784H51.2617C51.2993 10.948 51.31 11.1068 51.31 11.2603Z" fill="white" stroke="white" stroke-width="0.129185" stroke-miterlimit="10"/>
<path d="M56.2648 8.63119H53.3312V10.6255H55.9759V11.3838H53.3312V13.3781H56.2648V14.1509H52.5007V7.8584H56.2648V8.63119Z" fill="white" stroke="white" stroke-width="0.129185" stroke-miterlimit="10"/>
<path d="M59.7615 14.1509H58.931V8.63119H57.1316V7.8584H61.5622V8.63119H59.7615V14.1509Z" fill="white" stroke="white" stroke-width="0.129185" stroke-miterlimit="10"/>
<path d="M64.7686 14.1509V7.8584H65.5977V14.1509H64.7686Z" fill="white" stroke="white" stroke-width="0.129185" stroke-miterlimit="10"/>
<path d="M69.2732 14.1509H68.4494V8.63119H66.6433V7.8584H71.0793V8.63119H69.2732V14.1509Z" fill="white" stroke="white" stroke-width="0.129185" stroke-miterlimit="10"/>
<path d="M79.4675 13.3412C78.8318 13.9775 78.0444 14.295 77.105 14.295C76.1603 14.295 75.3728 13.9775 74.7372 13.3412C74.1029 12.7062 73.7871 11.9268 73.7871 11.0045C73.7871 10.0821 74.1029 9.30274 74.7372 8.66772C75.3728 8.03138 76.1603 7.71387 77.105 7.71387C78.039 7.71387 78.8265 8.03138 79.4621 8.67297C80.1018 9.31324 80.4176 10.0873 80.4176 11.0045C80.4176 11.9268 80.1018 12.7062 79.4675 13.3412ZM75.3513 12.8138C75.8297 13.2848 76.4116 13.5209 77.105 13.5209C77.7931 13.5209 78.3803 13.2848 78.8533 12.8138C79.3304 12.3427 79.5723 11.7379 79.5723 11.0045C79.5723 10.271 79.3304 9.66618 78.8533 9.19516C78.3803 8.72414 77.7931 8.48797 77.105 8.48797C76.4116 8.48797 75.8297 8.72414 75.3513 9.19516C74.8743 9.66618 74.6324 10.271 74.6324 11.0045C74.6324 11.7379 74.8743 12.3427 75.3513 12.8138Z" fill="white" stroke="white" stroke-width="0.129185" stroke-miterlimit="10"/>
<path d="M81.5825 14.1509V7.8584H82.5904L85.7242 12.7523H85.7605L85.7242 11.5426V7.8584H86.5533V14.1509H85.6879L82.4063 9.01561H82.37L82.4063 10.2306V14.1509H81.5825Z" fill="white" stroke="white" stroke-width="0.129185" stroke-miterlimit="10"/>
<path d="M73.5827 23.3397C71.0576 23.3397 68.9948 25.2159 68.9948 27.8046C68.9948 30.3722 71.0576 32.2681 73.5827 32.2681C76.1131 32.2681 78.1759 30.3722 78.1759 27.8046C78.1759 25.2159 76.1131 23.3397 73.5827 23.3397ZM73.5827 30.51C72.1972 30.51 71.0052 29.3934 71.0052 27.8046C71.0052 26.1947 72.1972 25.0978 73.5827 25.0978C74.9682 25.0978 76.1655 26.1947 76.1655 27.8046C76.1655 29.3934 74.9682 30.51 73.5827 30.51ZM63.5725 23.3397C61.0421 23.3397 58.9847 25.2159 58.9847 27.8046C58.9847 30.3722 61.0421 32.2681 63.5725 32.2681C66.1016 32.2681 68.1603 30.3722 68.1603 27.8046C68.1603 25.2159 66.1016 23.3397 63.5725 23.3397ZM63.5725 30.51C62.1857 30.51 60.9897 29.3934 60.9897 27.8046C60.9897 26.1947 62.1857 25.0978 63.5725 25.0978C64.958 25.0978 66.15 26.1947 66.15 27.8046C66.15 29.3934 64.958 30.51 63.5725 30.51ZM51.6608 24.7081V26.6054H56.301C56.1653 27.6655 55.8025 28.4448 55.2461 28.988C54.5688 29.644 53.5139 30.3722 51.6608 30.3722C48.8052 30.3722 46.569 28.1221 46.569 25.334C46.569 22.5459 48.8052 20.2958 51.6608 20.2958C53.2049 20.2958 54.3283 20.8849 55.1574 21.6485L56.5268 20.3115C55.3671 19.2304 53.8244 18.3999 51.6608 18.3999C47.7449 18.3999 44.4539 21.5107 44.4539 25.334C44.4539 29.1573 47.7449 32.2681 51.6608 32.2681C53.7773 32.2681 55.3671 31.5911 56.6168 30.321C57.8975 29.0707 58.2966 27.3125 58.2966 25.8929C58.2966 25.4521 58.259 25.0467 58.1918 24.7081H51.6608ZM100.369 26.1789C99.9916 25.1805 98.8265 23.3397 96.4533 23.3397C94.1016 23.3397 92.1436 25.149 92.1436 27.8046C92.1436 30.3053 94.0814 32.2681 96.679 32.2681C98.7794 32.2681 99.9916 31.0177 100.49 30.2895L98.9313 29.2753C98.4112 30.018 97.703 30.51 96.679 30.51C95.6618 30.51 94.9321 30.0547 94.4644 29.1573L100.58 26.6867L100.369 26.1789ZM94.1338 27.6655C94.0814 25.9441 95.5032 25.0624 96.5218 25.0624C97.32 25.0624 97.9973 25.4521 98.2231 26.0097L94.1338 27.6655ZM89.163 31.9965H91.1734V18.8761H89.163V31.9965ZM85.8706 24.3342H85.8034C85.3519 23.812 84.4905 23.3397 83.3993 23.3397C81.1095 23.3397 79.0158 25.3025 79.0158 27.819C79.0158 30.321 81.1095 32.2681 83.3993 32.2681C84.4905 32.2681 85.3519 31.7918 85.8034 31.2539H85.8706V31.8942C85.8706 33.6011 84.9367 34.5182 83.4302 34.5182C82.202 34.5182 81.44 33.6523 81.1256 32.9241L79.3773 33.6366C79.8812 34.82 81.2156 36.2764 83.4302 36.2764C85.7873 36.2764 87.7762 34.9223 87.7762 31.6278V23.6113H85.8706V24.3342ZM83.5713 30.51C82.1859 30.51 81.0261 29.3777 81.0261 27.819C81.0261 26.2459 82.1859 25.0978 83.5713 25.0978C84.9367 25.0978 86.0131 26.2459 86.0131 27.819C86.0131 29.3777 84.9367 30.51 83.5713 30.51ZM109.781 18.8761H104.973V31.9965H106.978V27.0252H109.781C112.008 27.0252 114.192 25.4521 114.192 22.95C114.192 20.4493 112.003 18.8761 109.781 18.8761ZM109.834 25.2002H106.978V20.7012H109.834C111.331 20.7012 112.185 21.9148 112.185 22.95C112.185 23.9655 111.331 25.2002 109.834 25.2002ZM122.228 23.3148C120.779 23.3148 119.273 23.9393 118.653 25.3235L120.433 26.0517C120.816 25.3235 121.52 25.0873 122.264 25.0873C123.304 25.0873 124.359 25.6974 124.375 26.7746V26.9124C124.012 26.7077 123.236 26.4046 122.28 26.4046C120.364 26.4046 118.411 27.4346 118.411 29.3567C118.411 31.1148 119.981 32.2471 121.745 32.2471C123.095 32.2471 123.839 31.6528 124.307 30.9613H124.375V31.9755H126.312V26.9425C126.312 24.6163 124.533 23.3148 122.228 23.3148ZM121.986 30.5047C121.33 30.5047 120.416 30.1872 120.416 29.3934C120.416 28.3779 121.556 27.9882 122.542 27.9882C123.425 27.9882 123.839 28.1785 124.375 28.4291C124.218 29.644 123.147 30.5047 121.986 30.5047ZM133.367 23.6021L131.062 29.2898H130.994L128.611 23.6021H126.449L130.029 31.5504L127.986 35.9733H130.081L135.598 23.6021H133.367ZM115.294 31.9965H117.304V18.8761H115.294V31.9965Z" fill="white"/>
<path d="M11.5515 8.42077C11.2357 8.74354 11.053 9.24604 11.053 9.89682V33.1094C11.053 33.7601 11.2357 34.2626 11.5515 34.5854L11.6295 34.6562L24.9522 21.654V21.347L11.6295 8.34468L11.5515 8.42077Z" fill="url(#paint0_linear_1601_6262)"/>
<path d="M29.3884 25.9902L24.9524 21.654V21.3469L29.3937 17.0107L29.4932 17.0671L34.7529 19.989C36.254 20.8182 36.254 22.1827 34.7529 23.0172L29.4932 25.9338L29.3884 25.9902Z" fill="url(#paint1_linear_1601_6262)"/>
<path d="M29.4932 25.9344L24.9524 21.501L11.5518 34.586C12.0503 35.0977 12.8633 35.1593 13.7879 34.6476L29.4932 25.9344Z" fill="url(#paint2_linear_1601_6262)"/>
<path d="M29.4932 17.0676L13.7879 8.35438C12.8633 7.84793 12.0503 7.9096 11.5518 8.42129L24.9524 21.501L29.4932 17.0676Z" fill="url(#paint3_linear_1601_6262)"/>
<defs>
<linearGradient id="paint0_linear_1601_6262" x1="23.7693" y1="33.3511" x2="6.15905" y2="15.3141" gradientUnits="userSpaceOnUse">
<stop stop-color="#00A0FF"/>
<stop offset="0.0066" stop-color="#00A1FF"/>
<stop offset="0.2601" stop-color="#00BEFF"/>
<stop offset="0.5122" stop-color="#00D2FF"/>
<stop offset="0.7604" stop-color="#00DFFF"/>
<stop offset="1" stop-color="#00E3FF"/>
</linearGradient>
<linearGradient id="paint1_linear_1601_6262" x1="36.7076" y1="21.499" x2="10.6944" y2="21.499" gradientUnits="userSpaceOnUse">
<stop stop-color="#FFE000"/>
<stop offset="0.4087" stop-color="#FFBD00"/>
<stop offset="0.7754" stop-color="#FFA500"/>
<stop offset="1" stop-color="#FF9C00"/>
</linearGradient>
<linearGradient id="paint2_linear_1601_6262" x1="27.0241" y1="19.091" x2="3.14314" y2="-5.36861" gradientUnits="userSpaceOnUse">
<stop stop-color="#FF3A44"/>
<stop offset="1" stop-color="#C31162"/>
</linearGradient>
<linearGradient id="paint3_linear_1601_6262" x1="8.17853" y1="42.3086" x2="18.8424" y2="31.3864" gradientUnits="userSpaceOnUse">
<stop stop-color="#32A071"/>
<stop offset="0.0685" stop-color="#2DA771"/>
<stop offset="0.4762" stop-color="#15CF74"/>
<stop offset="0.8009" stop-color="#06E775"/>
<stop offset="1" stop-color="#00F076"/>
</linearGradient>
</defs>
</svg>
