<svg width="24" height="25" viewBox="0 0 24 25" fill="none" xmlns="http://www.w3.org/2000/svg">
<path d="M13.2929 15.7929C13.6534 15.4324 14.2206 15.4047 14.6129 15.7097L14.7071 15.7929C15.0676 16.1534 15.0953 16.7206 14.7903 17.1129L14.7071 17.2071L10.7071 21.2071L10.6254 21.2803C10.6226 21.2826 10.6197 21.2849 10.6167 21.2872L10.7071 21.2071C10.6717 21.2425 10.6343 21.2747 10.5953 21.3037C10.5711 21.3215 10.5463 21.3383 10.5207 21.3539C10.5086 21.3614 10.4964 21.3685 10.4841 21.3753C10.4637 21.3866 10.4426 21.3973 10.4211 21.4073C10.4047 21.4149 10.3881 21.4221 10.3713 21.4288C10.3516 21.4367 10.3318 21.4439 10.3117 21.4505C10.2969 21.4553 10.2815 21.4599 10.266 21.4642C10.2444 21.4702 10.2227 21.4754 10.2008 21.4798C10.1834 21.4833 10.1659 21.4864 10.1485 21.489C10.1294 21.4919 10.1097 21.4943 10.0898 21.496C10.066 21.4981 10.0427 21.4994 10.0194 21.4998C10.0129 21.4999 10.0065 21.5 10 21.5L9.98164 21.4998C9.95798 21.4994 9.93433 21.4981 9.91075 21.496L10 21.5C9.94938 21.5 9.89964 21.4962 9.85104 21.489C9.83405 21.4864 9.81663 21.4833 9.79927 21.4798C9.77725 21.4754 9.75556 21.4702 9.73416 21.4643C9.71854 21.4599 9.70315 21.4553 9.68786 21.4503C9.6682 21.4439 9.64842 21.4367 9.62894 21.4289C9.61086 21.4217 9.59322 21.414 9.57577 21.4059C9.55546 21.3963 9.53539 21.386 9.51572 21.3751C9.50361 21.3685 9.49139 21.3614 9.47929 21.354C9.4502 21.3361 9.42204 21.3169 9.39497 21.2963C9.39229 21.2943 9.38969 21.2923 9.3871 21.2903C9.35153 21.2623 9.32136 21.2356 9.29289 21.2071L5.29289 17.2071C4.90237 16.8166 4.90237 16.1834 5.29289 15.7929C5.65338 15.4324 6.22061 15.4047 6.6129 15.7097L6.70711 15.7929L9 18.085L9 6C9 4.67449 10.0315 3.58996 11.3356 3.50532L11.5 3.5L18 3.5C18.5523 3.5 19 3.94772 19 4.5C19 5.01284 18.614 5.43551 18.1166 5.49327L18 5.5L11.5 5.5C11.2545 5.5 11.0504 5.67686 11.0081 5.91012L11 6L11 18.085L13.2929 15.7929Z" fill="#04C800"/>
</svg>
