<svg width="20" height="20" viewBox="0 0 20 20" fill="none" xmlns="http://www.w3.org/2000/svg">
<path d="M3.66666 18.9183C3.26066 18.9183 2.92605 18.6126 2.88032 18.2189L2.87499 18.1266L2.87526 9.94173C2.71351 9.88455 2.55494 9.81532 2.40087 9.73404L2.22961 9.63758L1.67602 9.30544C1.43756 9.16237 1.29166 8.90467 1.29166 8.62659V5.45992C1.29166 5.02269 1.6461 4.66825 2.08332 4.66825L2.87499 4.66746V2.29325C2.87499 1.88726 3.1806 1.55264 3.57433 1.50691L3.66666 1.50159H16.3333C16.7393 1.50159 17.0739 1.8072 17.1197 2.20093L17.125 2.29325V4.66746L17.9167 4.66825C18.3227 4.66825 18.6573 4.97387 18.703 5.3676L18.7083 5.45992V8.62659C18.7083 8.90467 18.5624 9.16236 18.324 9.30544L17.7704 9.63758C17.5637 9.76158 17.3476 9.86287 17.1255 9.94144L17.125 18.1266C17.125 18.5326 16.8194 18.8672 16.4256 18.9129L16.3333 18.9183H3.66666ZM13.9583 9.54967L13.8121 9.63758C12.7403 10.2807 11.4147 10.3128 10.3175 9.73404L10.1463 9.63758L9.99999 9.54967L9.85373 9.63758C8.78195 10.2807 7.45635 10.3128 6.35919 9.73404L6.18792 9.63758L6.04166 9.54967L5.8954 9.63758C5.44886 9.9055 4.95827 10.0674 4.45849 10.1232L4.45832 17.3349H7.22916V13.3766C7.22916 12.9706 7.53477 12.636 7.9285 12.5902L8.02082 12.5849H11.9792C12.4164 12.5849 12.7708 12.9394 12.7708 13.3766V17.3349H15.5417L15.5423 10.1233C15.0422 10.0676 14.5514 9.90565 14.1046 9.63758L13.9583 9.54967ZM11.1875 14.1683H8.81249V17.3349H11.1875V14.1683ZM16.3199 6.25079L2.87499 6.25159V8.1785L3.04422 8.27989C3.62921 8.63088 4.35029 8.65428 4.95343 8.35008L5.08077 8.27988L5.63435 7.94774C5.88505 7.79731 6.19826 7.79731 6.44897 7.94774L7.00254 8.27988C7.62932 8.65595 8.41233 8.65595 9.03911 8.27988L9.59268 7.94774C9.84339 7.79731 10.1566 7.79731 10.4073 7.94774L10.9609 8.27988C11.5877 8.65595 12.3707 8.65595 12.9974 8.27988L13.551 7.94774C13.8017 7.79731 14.1149 7.79731 14.3656 7.94774L14.9192 8.27988C15.546 8.65595 16.329 8.65595 16.9558 8.27988L17.125 8.17771V6.25159L16.347 6.25147C16.3425 6.25155 16.3379 6.25159 16.3333 6.25159L16.3199 6.25079ZM15.5417 3.08492H4.45832V4.66746H15.5417V3.08492Z" fill="black" fill-opacity="0.35"/>
</svg>
