<svg width="21" height="21" viewBox="0 0 21 21" fill="none" xmlns="http://www.w3.org/2000/svg">
<path fill-rule="evenodd" clip-rule="evenodd" d="M17.1667 15.21C17.1667 15.6691 16.7926 16.0433 16.3334 16.0433H14.6667V7.70996H16.3334C16.7926 7.70996 17.1667 8.08413 17.1667 8.54329V15.21ZM3.83341 15.21V8.54329C3.83341 8.08413 4.20758 7.70996 4.66675 7.70996H6.33341V16.0433H4.66675C4.20758 16.0433 3.83341 15.6691 3.83341 15.21ZM8.83341 4.79329C8.83341 4.56329 9.02008 4.37663 9.25008 4.37663H11.7501C11.9801 4.37663 12.1667 4.56329 12.1667 4.79329V6.04329H8.83341V4.79329ZM8.00008 16.0433H13.0001V7.70996H8.00008V16.0433ZM16.3334 6.04329H13.8334V4.79329C13.8334 3.64496 12.8984 2.70996 11.7501 2.70996H9.25008C8.10175 2.70996 7.16675 3.64496 7.16675 4.79329V6.04329H4.66675C3.28841 6.04329 2.16675 7.16496 2.16675 8.54329V15.21C2.16675 16.5883 3.28841 17.71 4.66675 17.71H16.3334C17.7117 17.71 18.8334 16.5883 18.8334 15.21V8.54329C18.8334 7.16496 17.7117 6.04329 16.3334 6.04329Z" fill="#A6A6A6"/>
</svg>
