<svg width="71" height="70" viewBox="0 0 71 70" fill="none" xmlns="http://www.w3.org/2000/svg">
<rect width="71" height="70" fill="#E5E5E5"/>
<g filter="url(#filter0_d_486_1155)">
<rect x="-45" y="-45" width="580" height="407" rx="8" fill="white"/>
<path d="M30.575 47.8625C30.2376 47.8711 29.902 47.8113 29.5883 47.6867C29.2747 47.5621 28.9895 47.3753 28.75 47.1375L16.875 35.2625C16.4059 34.7934 16.1423 34.1572 16.1423 33.4938C16.1423 32.8304 16.4059 32.1941 16.875 31.725C17.3441 31.2559 17.9803 30.9924 18.6437 30.9924C19.3071 30.9924 19.9434 31.2559 20.4125 31.725L30.525 41.8375L49.5375 22.8625C49.7698 22.6302 50.0455 22.446 50.349 22.3203C50.6525 22.1946 50.9777 22.1299 51.3062 22.1299C51.6347 22.1299 51.96 22.1946 52.2635 22.3203C52.567 22.446 52.8427 22.6302 53.075 22.8625C53.3073 23.0948 53.4915 23.3705 53.6172 23.674C53.7429 23.9775 53.8076 24.3028 53.8076 24.6313C53.8076 24.9598 53.7429 25.285 53.6172 25.5885C53.4915 25.892 53.3073 26.1677 53.075 26.4L32.3375 47.1375C31.8687 47.6024 31.2352 47.8631 30.575 47.8625Z" fill="#FFB300"/>
<path d="M35 70C28.1613 69.9897 21.4755 67.9763 15.7684 64.2085C10.0614 60.4406 5.58319 55.0833 2.88708 48.7986C0.190971 42.5138 -0.604915 35.5769 0.597747 28.8448C1.80041 22.1128 4.94893 15.8805 9.65432 10.918C14.3597 5.95546 20.4158 2.48014 27.0745 0.921354C33.7331 -0.637432 40.7025 -0.211383 47.1217 2.14687C53.5409 4.50511 59.1286 8.69224 63.1945 14.1909C67.2603 19.6897 69.6263 26.259 70 33.0875C70.0375 33.7487 69.8112 34.3978 69.3706 34.8923C68.93 35.3868 68.3111 35.6863 67.65 35.725C67.3205 35.7452 66.9904 35.7001 66.6785 35.5921C66.3666 35.4841 66.0792 35.3154 65.8328 35.0958C65.5864 34.8761 65.386 34.6099 65.2431 34.3124C65.1001 34.0149 65.0175 33.6921 65 33.3625C64.6608 27.0949 62.3644 21.0916 58.434 16.1978C54.5036 11.304 49.1372 7.76628 43.0905 6.08272C37.0438 4.39916 30.6213 4.65458 24.7274 6.81303C18.8334 8.97148 13.765 12.9242 10.2356 18.1147C6.70627 23.3052 4.89383 29.4719 5.0535 35.7466C5.21317 42.0213 7.33691 48.0878 11.1257 53.0921C14.9144 58.0963 20.1774 61.7862 26.1735 63.6421C32.1695 65.4979 38.5967 65.4264 44.55 63.4375C48.3288 62.1798 51.8176 60.178 54.8103 57.5503C57.803 54.9225 60.2392 51.722 61.975 48.1375C62.1067 47.824 62.3011 47.5408 62.546 47.305C62.791 47.0692 63.0815 46.8859 63.3998 46.7663C63.718 46.6466 64.0574 46.5931 64.397 46.6091C64.7366 46.6251 65.0694 46.7101 65.375 46.8591C65.6807 47.0081 65.9527 47.2179 66.1745 47.4756C66.3963 47.7333 66.5631 48.0335 66.6649 48.3579C66.7667 48.6823 66.8013 49.0241 66.7664 49.3623C66.7316 49.7005 66.6282 50.0281 66.4625 50.325C64.4425 54.5111 61.6027 58.2491 58.1114 61.3174C54.6201 64.3857 50.5483 66.7219 46.1375 68.1875C42.5467 69.3871 38.7858 69.9991 35 70Z" fill="#25A75C"/>
</g>
<defs>
<filter id="filter0_d_486_1155" x="-95" y="-91" width="680" height="507" filterUnits="userSpaceOnUse" color-interpolation-filters="sRGB">
<feFlood flood-opacity="0" result="BackgroundImageFix"/>
<feColorMatrix in="SourceAlpha" type="matrix" values="0 0 0 0 0 0 0 0 0 0 0 0 0 0 0 0 0 0 127 0" result="hardAlpha"/>
<feOffset dy="4"/>
<feGaussianBlur stdDeviation="25"/>
<feComposite in2="hardAlpha" operator="out"/>
<feColorMatrix type="matrix" values="0 0 0 0 0 0 0 0 0 0 0 0 0 0 0 0 0 0 0.08 0"/>
<feBlend mode="normal" in2="BackgroundImageFix" result="effect1_dropShadow_486_1155"/>
<feBlend mode="normal" in="SourceGraphic" in2="effect1_dropShadow_486_1155" result="shape"/>
</filter>
</defs>
</svg>
