<svg width="21" height="21" viewBox="0 0 21 21" fill="none" xmlns="http://www.w3.org/2000/svg">
<path fill-rule="evenodd" clip-rule="evenodd" d="M10.5 1.87659C10.9602 1.87659 11.3333 2.24968 11.3333 2.70992V4.37659H16.3333C16.626 4.37659 16.8973 4.53017 17.0479 4.78117L19.5479 8.94784C19.6256 9.07735 19.6666 9.22555 19.6666 9.37659C19.6666 11.2175 18.1743 12.7099 16.3333 12.7099C14.4924 12.7099 13 11.2175 13 9.37659C13 9.22555 13.041 9.07735 13.1187 8.94784L14.8615 6.04325H11.3333V16.8766H16.3333C16.7935 16.8766 17.1666 17.2497 17.1666 17.7099C17.1666 18.1702 16.7935 18.5433 16.3333 18.5433H4.66665C4.20641 18.5433 3.83331 18.1702 3.83331 17.7099C3.83331 17.2497 4.20641 16.8766 4.66665 16.8766H9.66665V6.04325H6.13847L7.88122 8.94784C7.95893 9.07735 7.99998 9.22555 7.99998 9.37659C7.99998 11.2175 6.50759 12.7099 4.66665 12.7099C2.8257 12.7099 1.33331 11.2175 1.33331 9.37659C1.33331 9.22555 1.37436 9.07735 1.45207 8.94784L3.95207 4.78117C4.10267 4.53017 4.37393 4.37659 4.66665 4.37659H9.66665V2.70992C9.66665 2.24968 10.0397 1.87659 10.5 1.87659ZM4.66665 6.82963L5.69482 8.54325H3.63847L4.66665 6.82963ZM3.22295 10.2099H6.11034C5.82217 10.7081 5.28354 11.0433 4.66665 11.0433C4.04974 11.0433 3.51113 10.7081 3.22295 10.2099ZM16.3333 6.82963L15.3051 8.54325H17.3615L16.3333 6.82963ZM17.777 10.2099H14.8896C15.1778 10.7081 15.7164 11.0433 16.3333 11.0433C16.9502 11.0433 17.4888 10.7081 17.777 10.2099Z" fill="black" fill-opacity="0.35"/>
</svg>
